<?xml version="1.0" encoding="utf-8"?>
<!-- Generator: Adobe Illustrator 25.4.1, SVG Export Plug-In . SVG Version: 6.00 Build 0)  -->
<svg version="1.1" id="Calque_1" xmlns="http://www.w3.org/2000/svg" xmlns:xlink="http://www.w3.org/1999/xlink" x="0px" y="0px"
	 viewBox="0 0 1000 1000" style="enable-background:new 0 0 1000 1000;" xml:space="preserve">
<style type="text/css">
	.st0{fill:#4B4EDC;}
	.st1{fill:#FFFFFF;}
	.st2{clip-path:url(#SVGID_00000152235256152072342220000004676409424769364352_);}
	.st3{enable-background:new    ;}
	
		.st4{clip-path:url(#SVGID_00000054253318141129145850000003395431938859394711_);fill:#FFFFFF;stroke:#474747;stroke-width:1.7632;stroke-miterlimit:10;}
	
		.st5{clip-path:url(#SVGID_00000022534583152761525590000009569831073355988395_);fill:#FFFFFF;stroke:#FFFFFF;stroke-width:1.7632;stroke-miterlimit:10;}
	
		.st6{clip-path:url(#SVGID_00000063627184667328053780000004598921858150286752_);fill:#FFFFFF;stroke:#585858;stroke-width:1.7632;stroke-miterlimit:10;}
	.st7{fill:none;}
</style>
<path class="st0" d="M41.3,982C26.8,982,15,970.2,15,955.8V36.1C15,21.6,26.8,9.9,41.3,9.9H959c14.5,0,26.2,11.8,26.2,26.2v919.6
	c0,14.5-11.8,26.2-26.2,26.2H41.3V982z"/>
<path class="st1" d="M959,11.1c13.7,0,25,11.2,25,25v919.6c0,13.7-11.2,25-25,25H41.3c-13.7,0-25-11.2-25-25V36.1
	c0-13.7,11.2-25,25-25L959,11.1 M959,8.6H41.3C26.1,8.6,13.8,21,13.8,36.1v919.6c0,15.2,12.3,27.5,27.5,27.5H959
	c15.2,0,27.5-12.3,27.5-27.5V36.1C986.5,21,974.2,8.6,959,8.6L959,8.6z"/>
<path class="st1" d="M100,806.6c4.3-4.4,11.4-6.3,21.7-6.3h17.8v9.7h-18.8c-10,0-14.5,4-14.6,13.5h33.4v9.6H106v22.8H94.4v-25.5
	C94.4,819.2,95,811.7,100,806.6"/>
<path class="st1" d="M143.8,835.5c0-13.3,7-20.4,20.5-20.4H180v8.5h-14.2c-6.9,0-9.8,1.2-10.1,7.7H180v8.5h-24.3
	c0.2,6.7,3,7.6,10,7.6H180v8.5h-15.7C150.8,855.8,143.8,848.9,143.8,835.5 M177.9,799.4l-13.2,10.8h-5.4l7.5-10.8H177.9z"/>
<path class="st1" d="M204,855.8c-12.7,0-19.9-7.9-19.9-20.9c0-5.4,1.5-9.9,4.4-13.6c3.9-4.9,8.8-6.3,16.2-6.3h9.2v-14.8h10.8v55.6
	H204z M213.9,823.8h-6.5c-8.4,0-12,3-12,11.8c0,8.5,3.2,11.4,11.1,11.4h7.4V823.8z"/>
<path class="st1" d="M231.7,835.5c0-13.3,7-20.4,20.5-20.4H268v8.5h-14.2c-6.9,0-9.8,1.2-10.1,7.7H268v8.5h-24.3
	c0.2,6.7,3,7.6,10,7.6H268v8.5h-15.7C238.7,855.8,231.7,848.9,231.7,835.5 M265.8,799.4l-13.2,10.8h-5.4l7.5-10.8H265.8z"/>
<path class="st1" d="M293,815c8.5,0,11.5,2.7,11.5,10.3v6.8h-10.3v-5.3c0-3.6-1.2-4-4.7-4h-3.8v33h-10.8V815H293z"/>
<path class="st1" d="M334.1,815c11.1,0,16.8,5.2,16.8,15.3v25.5H322c-8.1,0-12.6-4.3-12.6-11.8c0-9.4,4.9-13,16.3-13h14.2v-1
	c0-5.2-2.9-6.6-9.7-6.6h-18V815H334.1z M339.9,847.6v-8.4h-12.7c-4.6,0-6.7,0.9-6.7,4.6c0,3.4,1.9,3.9,5.9,3.9L339.9,847.6
	L339.9,847.6z"/>
<path class="st1" d="M363.9,815v-14.8h10.8V815h11.4v8.1h-11.4v16.5c0,5.6,1.5,8,7,8h4.4v8.1h-9.8c-7.8,0-12.3-4.4-12.3-12.8V823
	h-7.6v-8H363.9z"/>
<path class="st1" d="M392.4,800.2h11.3v10.1h-11.3V800.2z M392.4,815h11.3v40.8h-11.3V815z"/>
<path class="st1" d="M432,856.5c-13.3,0-21.7-8.4-21.7-21c0-12.7,8.4-21.1,21.7-21.1c13.2,0,21.6,8.4,21.6,21.1
	C453.6,848.1,445.4,856.5,432,856.5 M431.9,847.8c6.3,0,10.4-4.4,10.4-12.3s-4-12.3-10.4-12.3c-6.3,0-10.3,4.4-10.3,12.3
	S425.6,847.8,431.9,847.8"/>
<path class="st1" d="M480.4,815c12.1,0,17,4.1,17,14.9v25.9h-10.8v-24.5c0-5.7-1-7.3-7.1-7.3h-8.7v31.8H460V815H480.4z"/>
<path class="st1" d="M542.9,806.6c4.3-4.4,11.4-6.3,21.7-6.3h17.8v9.7h-18.8c-10,0-14.5,4-14.6,13.5h33.4v9.6H549v22.8h-11.7v-25.5
	C537.2,819.2,537.9,811.7,542.9,806.6"/>
<path class="st1" d="M607.1,815c8.5,0,11.5,2.7,11.5,10.3v6.8h-10.3v-5.3c0-3.6-1.2-4-4.7-4h-3.8v33H589V815H607.1z"/>
<path class="st1" d="M648.3,815c11.1,0,16.8,5.2,16.8,15.3v25.5h-28.9c-8.1,0-12.6-4.3-12.6-11.8c0-9.4,4.9-13,16.3-13H654v-1
	c0-5.2-2.9-6.6-9.8-6.6h-18V815H648.3z M654,847.6v-8.4h-12.7c-4.6,0-6.7,0.9-6.7,4.6c0,3.4,1.9,3.9,5.9,3.9L654,847.6L654,847.6z"
	/>
<path class="st1" d="M694.8,815c12.1,0,17,4.1,17,14.9v25.9H701v-24.5c0-5.7-1-7.3-7.1-7.3h-8.7v31.8h-10.8V815H694.8z"/>
<path class="st1" d="M754.7,847.1v8.7H740c-6.7,0-11.5-1.2-15.3-4.9c-3.7-3.6-6-9.2-6-15.3c0-6.4,2.3-12.1,6-15.7
	c3.8-3.6,8.6-4.9,15.3-4.9h14.6v8.8h-11.5c-9.2,0-13.3,2.3-13.3,11.8c0,4.9,1.5,8.1,4.8,10.1c2.2,1.3,4.9,1.3,8.5,1.3h11.6V847.1z
	 M738,868c2.1,0,3-0.8,3-2.5c0-1.6-1.3-2.2-4.3-2.2c-0.5,0-1.2,0-1.9,0.1v-8h4.2v3.6h0.5c5.4,0,8.4,2.3,8.4,6.6
	c0,4.5-3.2,7.2-9.1,7.2c-2.9,0-6.4-0.5-10.5-1.6v-4.7C732.5,867.5,735.8,868,738,868"/>
<path class="st1" d="M784.7,815c11.2,0,16.8,5.2,16.8,15.3v25.5h-28.9c-8.1,0-12.6-4.3-12.6-11.8c0-9.4,4.9-13,16.3-13h14.2v-1
	c0-5.2-2.9-6.6-9.8-6.6h-18V815H784.7z M790.4,847.6v-8.4h-12.7c-4.6,0-6.7,0.9-6.7,4.6c0,3.4,1.9,3.9,5.9,3.9L790.4,847.6
	L790.4,847.6z"/>
<path class="st1" d="M810.9,800.2h11.3v10.1h-11.3V800.2z M810.9,815h11.3v40.8h-11.3V815z"/>
<path class="st1" d="M853.6,847.3c3.9,0,5.8-1.1,5.8-4s-1.9-4-5.8-4h-9.3c-9.9,0-14.1-2-14.1-11.5c0-8.7,4.6-12.8,14.4-12.8h23.1
	v8.5h-19c-4.9,0-7.4,0.3-7.4,3.7c0,2.6,1.6,3.6,5.1,3.6h9.8c9,0,13.7,4.3,13.7,12.1c0,7.7-4.7,12.8-11.1,12.8H831v-8.5h22.6V847.3z"
	/>
<path class="st1" d="M875.2,835.5c0-13.3,7-20.4,20.5-20.4h15.7v8.5h-14.2c-6.9,0-9.8,1.2-10.1,7.7h24.3v8.5h-24.3
	c0.2,6.7,3,7.6,10,7.6h14.3v8.5h-15.7C882.1,855.8,875.2,848.9,875.2,835.5"/>
<path class="st1" d="M311.1,948.7c-12.7,0-19.9-7.9-19.9-20.9c0-5.4,1.5-9.9,4.4-13.6c3.9-4.9,8.8-6.3,16.2-6.3h9.2v-14.8h10.8v55.6
	H311.1z M321,916.7h-6.5c-8.4,0-12,3-12,11.8c0,8.5,3.2,11.4,11.1,11.4h7.4V916.7z"/>
<path class="st1" d="M338.8,928.3c0-13.3,7-20.4,20.5-20.4H375v8.5h-14.2c-6.9,0-9.8,1.2-10.1,7.7H375v8.5h-24.3
	c0.2,6.7,3,7.6,10,7.6H375v8.5h-15.7C345.7,948.7,338.8,941.7,338.8,928.3"/>
<polygon class="st1" points="404.7,893.1 418,893.1 434.7,934.5 451.8,893.1 464.2,893.1 441,948.7 428.9,948.7 "/>
<path class="st1" d="M481.5,949.4c-13.3,0-21.7-8.4-21.7-21c0-12.7,8.4-21.1,21.7-21.1c13.2,0,21.6,8.4,21.6,21.1
	C503.1,941,494.8,949.4,481.5,949.4 M481.4,940.6c6.3,0,10.4-4.4,10.4-12.3c0-7.9-3.9-12.3-10.4-12.3c-6.3,0-10.3,4.4-10.3,12.3
	C471.1,936.2,475,940.6,481.4,940.6"/>
<rect x="509.5" y="893.1" class="st1" width="11.2" height="55.6"/>
<path class="st1" d="M564.7,942.9c-4.3-4.5-5-9.4-5-16.7v-33.1h11.7v30.5v2.2c0,4.6,0.1,7.9,1.9,10.1c2.5,2.9,5.8,3.6,10.8,3.6h13.8
	v9.2H583C575,948.7,569.6,948.2,564.7,942.9"/>
<path class="st1" d="M602.9,893.1h11.3v10.1h-11.3V893.1z M602.9,907.9h11.3v40.8h-11.3V907.9z"/>
<path class="st1" d="M634.3,907.9h9.3c7.4,0,12.3,1.4,16.2,6.3c2.9,3.7,4.4,8.2,4.4,13.6c0,13-7.3,20.9-19.9,20.9h-20.7v-55.6h10.8
	L634.3,907.9L634.3,907.9z M634.3,916.7v23.2h7.4c8,0,11.1-2.9,11.1-11.4c0-8.8-3.6-11.8-12-11.8H634.3z"/>
<path class="st1" d="M688.9,907.9c8.5,0,11.5,2.7,11.5,10.3v6.8h-10.3v-5.3c0-3.6-1.2-4-4.7-4h-3.8v33h-10.8v-40.8H688.9z"/>
<path class="st1" d="M704.8,928.3c0-13.3,7-20.4,20.5-20.4H741v8.5h-14.2c-6.9,0-9.8,1.2-10.1,7.7H741v8.5h-24.3
	c0.2,6.7,3,7.6,10,7.6H741v8.5h-15.7C711.8,948.7,704.8,941.7,704.8,928.3"/>
<g>
	<defs>
		<path id="SVGID_1_" d="M959,980.7H41.3c-13.7,0-25-11.2-25-25V36.1c0-13.7,11.2-25,25-25H959c13.7,0,25,11.2,25,25v919.6
			C984,969.5,972.8,980.7,959,980.7z"/>
	</defs>
	<clipPath id="SVGID_00000169548245695569403590000007545041539815077775_">
		<use xlink:href="#SVGID_1_"  style="overflow:visible;"/>
	</clipPath>
	<g style="clip-path:url(#SVGID_00000169548245695569403590000007545041539815077775_);">
		<g class="st3">
			<g>
				<g>
					<defs>
						<rect id="SVGID_00000131350546763689949690000002662639838376240541_" x="-41.4" y="353.8" width="1086.2" height="557.1"/>
					</defs>
					<clipPath id="SVGID_00000037694157494020051600000011812944542929926050_">
						<use xlink:href="#SVGID_00000131350546763689949690000002662639838376240541_"  style="overflow:visible;"/>
					</clipPath>
					
						<path style="clip-path:url(#SVGID_00000037694157494020051600000011812944542929926050_);fill:#FFFFFF;stroke:#474747;stroke-width:1.7632;stroke-miterlimit:10;" d="
						M1037.4,466.4c3.2,4,2.6,9.1-0.7,12c-5.6,5-11.3,10.1-15.8,14.4c-66.5,58.9-134.9,100-205.7,125.7
						c-70.7,25.8-143.7,36.3-218.9,34.4c-13.5-0.4-27-1.1-40.6-2.2c-32.1-3-62.2-4.8-90.6-5.6c-136.3-3.4-232,18.5-298.9,52
						C99.1,730.9,60.7,775.9,38.2,820c-15,29.5-22.7,58.6-26.6,83.5c-0.7,4.3-4.4,7.4-8.7,7.3c-5.4-0.7-8.5-4.8-7.8-9.4
						c6.2-39.5,21.6-89.3,58.5-135.7C90.4,719.4,148.7,677,239,651.9c60.2-16.7,134.7-25.8,226.9-23.5c28.8,0.7,59.3,2.6,91.7,5.6
						c13.3,1.1,26.5,1.8,39.6,2.1c73.4,1.9,144.1-8.4,212.7-33.4c56.3-20.5,111.1-51,164.8-93c14.2-8.4,28.3-17.4,42.5-27.1
						c1.7-1.1,4.1-2.7,6.9-4.7s6-4.3,9.2-6.7C1035.1,470,1036.5,468.3,1037.4,466.4"/>
				</g>
				<g>
					<defs>
						<rect id="SVGID_00000014604631057337822990000002573818834934829445_" x="-41.4" y="353.8" width="1086.2" height="557.1"/>
					</defs>
					<clipPath id="SVGID_00000083047788878345972580000008107330462046168751_">
						<use xlink:href="#SVGID_00000014604631057337822990000002573818834934829445_"  style="overflow:visible;"/>
					</clipPath>
					
						<path style="clip-path:url(#SVGID_00000083047788878345972580000008107330462046168751_);fill:#FFFFFF;stroke:#FFFFFF;stroke-width:1.7632;stroke-miterlimit:10;" d="
						M1026.7,448.6c3.7,0.1,7.3,1.8,9.6,5.1c2.7,3.8,2.9,8.7,1.1,12.7c-0.9,1.9-2.3,3.7-4.1,5c-3.2,2.4-6.5,4.7-9.2,6.7
						c-2.8,2-5.2,3.7-6.9,4.8c-14.2,9.7-28.3,18.7-42.5,27.1c-46.8,27.7-93.4,48.4-140.1,62.8c-60.8,18.7-121.6,26.5-182.4,25
						c-43.2-1.1-86.4-6.9-129.8-16.8C437,558.1,364,547.6,301.6,546.1c-72.8-1.8-131.2,8.4-177.6,25.3
						c-46.4,16.8-80.8,40.2-106.1,65c-2.6,2.6-6,3.8-9.3,3.7c-3.1-0.1-6.1-1.3-8.4-3.7c-4.8-4.9-4.6-12.9,0.4-17.9
						c27.9-27.4,65.7-52.9,115.4-71s111.3-28.7,186.8-26.8c64.6,1.6,139.3,12.4,225.7,35.5c41.9,9.6,83.5,15.2,124.9,16.2
						c58.3,1.5,116.2-6,174.4-23.9c18.7-5.8,37.5-12.6,56.3-20.6c39.6-16.8,79.4-38.6,119.5-66c1.4-1,3.7-2.5,6.4-4.4
						s5.8-4.1,8.8-6.4C1021.2,449.3,1024,448.5,1026.7,448.6"/>
				</g>
				<g>
					<defs>
						<rect id="SVGID_00000145056790636943542790000009100350073632925316_" x="-41.4" y="353.8" width="1086.2" height="557.1"/>
					</defs>
					<clipPath id="SVGID_00000018942539829886022840000016810113187355916727_">
						<use xlink:href="#SVGID_00000145056790636943542790000009100350073632925316_"  style="overflow:visible;"/>
					</clipPath>
					
						<path style="clip-path:url(#SVGID_00000018942539829886022840000016810113187355916727_);fill:#FFFFFF;stroke:#585858;stroke-width:1.7632;stroke-miterlimit:10;" d="
						M184.3,382.1c85.8,2.2,191.8,26.4,321.4,85.7c68.5,28.3,138,44.5,209.7,46.3c95.8,2.4,196.2-20.7,304.7-76.2
						c2.7-1.4,5.6-2,8.4-1.9c6.1,0.1,11.8,3.6,14.7,9.4c3.6,7.5,1.3,16.5-5.2,21.6c1.4-4.6,1.1-9.5-1.5-13.3c-2.3-3.2-5.9-5-9.6-5.1
						c-2.7-0.1-5.5,0.7-7.9,2.5c-3,2.3-6.1,4.5-8.8,6.4s-5,3.4-6.2,4.3c-40.3,27.5-80.1,49.4-119.7,66.2
						c-58.4,15.7-115.1,22.4-170.6,20.9c-76.6-1.9-150.4-19.3-222.4-49.1c-126.9-58-228.4-80.9-308.5-82.9
						c-70.3-1.8-123.9,12.3-164.1,32.7c-2.7,1.4-5.5,2-8.3,1.9c-6.1-0.2-11.8-3.6-14.7-9.4c-4.1-8.6-0.5-19,8.1-23.4
						C49.4,395.3,109.1,380.2,184.3,382.1"/>
				</g>
			</g>
		</g>
	</g>
</g>
<g>
	<path class="st7" d="M313.9,91.1c-4.4-0.9-9-1.3-13.5-1.4c-11.5-0.2-23-0.1-34.5-0.1c-0.5,0-1,0.1-1.6,0.1c0,32.2,0,64.3,0,96.7
		c0.7,0,1.3,0,2,0c11.1,0,22.3,0.1,33.4,0c3.4,0,6.9-0.2,10.3-0.7c13.2-1.6,20.5-8,24-20.7c2.1-7.4,2.6-15,2.8-22.7
		c0.2-10.6-0.2-21.2-2.9-31.6C331.2,100.1,324.7,93.3,313.9,91.1z"/>
	<path class="st7" d="M865.2,89.3c-8.5-2.1-17.2-2.5-25.8-1.6c-3.5,0.3-7,1.1-10.4,2.2c-5.9,2-9.5,6.2-10.3,12.4
		c-0.4,3-0.4,6.2,0.1,9.2c0.9,6.5,4.9,10.5,11.2,12c2.4,0.6,5,0.7,7.5,0.7c16.1,0,32.2,0,48.3,0c0.6,0,1.1,0,2.3,0
		c-0.6-4.5-1-8.8-1.8-13C883.8,99.6,876.9,92.2,865.2,89.3z"/>
	<path class="st1" d="M159.3,186.4c-4.1,0-8.2-0.4-12.2-1c-11.3-1.9-18.8-8.3-22-19.5c-1.9-6.5-2.6-13.2-2.8-19.9
		c-0.3-11.1,0.2-22.2,3.3-33c1.7-6.1,4.4-11.7,9.2-16.1c6.3-5.7,13.9-7.6,22.1-7.7c17-0.1,34-0.1,51.1-0.1c0.7,0,1.3,0,2,0
		c0-8.6,0-16.9,0-25.3c-0.6,0-1-0.1-1.5-0.1c-16.8,0-33.6,0-50.4,0c-8.7,0-17.3,0.8-25.8,3.1c-16.3,4.3-28.6,13.5-35.9,28.9
		c-4.7,9.9-6.8,20.4-7.7,31.3c-0.2,2.8-0.5,5.6-0.7,8.4c0,3.3,0,6.7,0,10c0.1,1,0.3,2,0.3,3c0.5,8,1.6,15.9,4.2,23.5
		c6.4,19.2,19.2,32,38.6,37.7c8.1,2.4,16.5,2.6,25,2.6c17.4,0,34.7,0,52.1,0c0.6,0,1.2,0,1.8,0c0-8.7,0-17.2,0-25.9
		c-0.8,0-1.4,0-2.1,0C191.7,186.4,175.5,186.5,159.3,186.4z"/>
	<path class="st1" d="M918.3,100.7c-3.9-11-10.3-20.2-20.1-26.8c-9.5-6.4-20.2-9.4-31.4-10.9c-11.1-1.5-22.1-1.5-33.2-0.3
		c-9.1,0.9-18,2.8-26.4,6.8c-10.2,4.9-17.9,12.2-21.6,23.2c-2.7,8.1-3,16.5-1.8,24.9c2,13.5,9.2,22.9,22.1,27.7
		c8.6,3.2,17.5,4.3,26.6,4.3c17.6,0.1,35.3,0,52.9,0c0.7,0,1.4,0,2.4,0c-0.4,3.3-0.7,6.4-1.3,9.5c-2.5,13.2-9.9,22-23,25.6
		c-6.1,1.7-12.4,2.2-18.8,2.2c-17.1,0-34.1,0-51.2,0c-0.7,0-1.4,0-2.1,0c0,8.6,0,17,0,25.5c0.5,0,0.8,0,1.1,0
		c18.7,0,37.5,0.1,56.2-0.1c10.1-0.1,20-1.4,29.8-4.1c21.1-5.9,35-19,41.1-40.1c2.9-10,3.9-20.3,4-30.7
		C923.7,124.9,922.6,112.6,918.3,100.7z M885.7,124.3c-16.1,0-32.2,0.1-48.3,0c-2.5,0-5.1-0.2-7.5-0.7c-6.4-1.5-10.3-5.5-11.2-12
		c-0.4-3-0.4-6.2-0.1-9.2c0.8-6.2,4.4-10.4,10.3-12.4c3.3-1.1,6.9-1.9,10.4-2.2c8.7-0.8,17.3-0.4,25.8,1.6c11.7,2.8,18.6,10.3,21,22
		c0.9,4.2,1.2,8.5,1.8,13C886.8,124.3,886.3,124.3,885.7,124.3z"/>
	<path class="st1" d="M364.7,100.1c-5.8-14.8-15.9-25.3-30.8-31c-10.9-4.1-22.2-5.3-33.7-5.3c-21.7,0-43.3,0-65,0c-0.6,0-1.2,0-2,0
		c0,49.7,0,99.1,0,148.6c0.8,0,1.5,0,2.2,0c21,0,42,0.1,62.9,0c6.3,0,12.5-0.3,18.8-0.7c12.6-0.9,23.6-5.6,33.1-13.9
		c10.7-9.4,16.3-21.5,19-35.1c2.1-10.7,2.4-21.5,1.7-32.3C370.2,120,368.5,109.8,364.7,100.1z M336.9,142.3
		c-0.2,7.6-0.8,15.3-2.8,22.7c-3.5,12.8-10.8,19.1-24,20.7c-3.4,0.4-6.9,0.6-10.3,0.7c-11.1,0.1-22.3,0-33.4,0c-0.6,0-1.2,0-2,0
		c0-32.4,0-64.5,0-96.7c0.6,0,1.1-0.1,1.6-0.1c11.5,0,23-0.1,34.5,0.1c4.5,0.1,9.1,0.5,13.5,1.4c10.8,2.2,17.3,9,20.1,19.6
		C336.7,121.1,337.2,131.7,336.9,142.3z"/>
	<path class="st1" d="M752.7,128.2c-7.3-3.3-15.1-4.1-23.1-4.1c-16.6,0-33.2,0-49.8,0c-0.7,0-1.5,0-2.2,0c0-11.8,0-23.4,0-35.1
		c30.2,0,60.2,0,90.3,0c0-8.5,0-16.9,0-25.3c-41.1,0-82.1,0-123.3,0c0,28.6,0,57.1,0,85.7c0.8,0,1.4,0,2.1,0c23,0,46,0,69,0
		c3,0,6.1,0.2,9.1,0.7c6.2,1,11.1,3.8,13.1,10.2c1.3,4,1.4,8,0.8,12.1c-1.1,7.7-4.6,11.6-12.2,13.2c-3.3,0.7-6.8,1-10.3,1
		c-23.2,0.1-46.3,0-69.5,0c-0.7,0-1.3,0-2.1,0c0,8.6,0,16.9,0,25.4c0.5,0,0.7,0.1,1,0.1c27,0,54,0,81.1-0.1c7.3,0,14.5-1.1,21.5-3.4
		c11.7-3.9,20.5-11,24.7-22.9c3.3-9.4,3.6-19.2,1.8-28.9C772.4,143.7,765.3,133.8,752.7,128.2z"/>
	<path class="st1" d="M499,63.7c-1.8,0-2.6,0.5-3.3,2.1c-14.6,35.4-29.3,70.9-43.9,106.3c-0.3,0.6-0.5,1.2-1,2.2
		c-0.4-1.1-0.7-1.8-1-2.5c-14.3-35.5-28.7-71-43-106.5c-0.5-1.2-1.1-1.6-2.4-1.6c-5.6,0.1-11.3,0-16.9,0c-5.5,0-11,0-16.8,0
		c0.3,0.7,0.4,1.1,0.6,1.5c21.2,48.6,42.4,97.1,63.5,145.7c0.5,1.1,1,1.4,2.1,1.4c9.7-0.1,19.3-0.1,29,0c1.5,0,2.1-0.5,2.6-1.8
		c20.1-48.3,40.3-96.6,60.5-144.9c0.2-0.6,0.4-1.2,0.7-2c-0.8,0-1.4,0-2,0C518.2,63.7,508.6,63.8,499,63.7z"/>
	<path class="st1" d="M600.6,187.6c-5.6,0-11.2-0.1-16.6-1.6c-9.3-2.6-15.8-8.1-17.3-18.1c-0.6-3.7-0.8-7.4-0.8-11.2
		c-0.1-30.2-0.1-60.5-0.1-90.7c0-0.7,0-1.4,0-2.2c-10.5,0-20.8,0-31.3,0c0,0.6,0,1.2,0,1.7c0,29.4-0.1,58.7,0.1,88.1
		c0,6.7,0.4,13.5,1.7,20c3.7,18.4,14.9,30.6,32.9,36c8.1,2.4,16.6,2.6,25,2.6c13.6,0.1,27.1,0,40.7,0c0.5,0,1.1,0,1.6,0
		c0-8.3,0-16.4,0-24.7c-0.9,0-1.6,0-2.2,0C623,187.7,611.8,187.7,600.6,187.6z"/>
</g>
</svg>
