<svg id="Calque_1" data-name="Calque 1" xmlns="http://www.w3.org/2000/svg" viewBox="0 0 784.09 364.02"><defs><style>.cls-1{fill:#402d87;}.cls-2{fill:#3f93cd;}.cls-3{fill:#d34290;}.cls-4{fill:#efb253;}.cls-5{fill:#313a85;}</style></defs><path class="cls-1" d="M315.3,82.28a13.29,13.29,0,0,0-5.34-8.2,17.63,17.63,0,0,0-10.42-2.9q-8.52,0-13.42,5t-4.89,13.64q0,8.4,4.75,13.5a15.59,15.59,0,0,0,5.55,3.78,19.16,19.16,0,0,0,7.16,1.26,17.7,17.7,0,0,0,11.15-3.54,16.26,16.26,0,0,0,6-9.61h4.6a20.67,20.67,0,0,1-7.31,12.69,22,22,0,0,1-14.28,4.71q-10,0-16-6.21t-6-16.58q0-10.61,6.08-16.71T299.6,67q8.38,0,13.68,4a16.75,16.75,0,0,1,6.42,11.28Z" transform="translate(-52.99 -14.75)"/><path class="cls-1" d="M323.59,95.52q0-7.62,4.68-12.32t12.31-4.7q7.59,0,12.31,4.72t4.72,12.3q0,7.62-4.72,12.34t-12.31,4.71c-5.07,0-9.18-1.58-12.3-4.73S323.59,100.58,323.59,95.52Zm4.25,0a13,13,0,0,0,3.44,9.45,13.91,13.91,0,0,0,18.52,0,12.9,12.9,0,0,0,3.47-9.45,13,13,0,0,0-3.44-9.42,12.34,12.34,0,0,0-9.26-3.53,12.52,12.52,0,0,0-9.28,3.52,11.67,11.67,0,0,0-2.57,4.11A15.11,15.11,0,0,0,327.84,95.52Z" transform="translate(-52.99 -14.75)"/><path class="cls-1" d="M363.08,111.43V79.64h4V85.5a15.05,15.05,0,0,1,5.65-4.86A17.07,17.07,0,0,1,380.4,79a15.61,15.61,0,0,1,7.47,1.58,9.65,9.65,0,0,1,4.3,5,15.09,15.09,0,0,1,5.69-4.86A17.06,17.06,0,0,1,405.48,79q6.25,0,9.25,2.88t3,9v20.57h-4.19V93.56q0-6.09-2-8.45c-1.31-1.58-3.57-2.36-6.8-2.36a13.41,13.41,0,0,0-9,3,9.52,9.52,0,0,0-3.5,7.61v18.11h-3.78V93.56q0-6.09-2-8.45c-1.33-1.58-3.6-2.36-6.83-2.36a13.41,13.41,0,0,0-9,3,9.52,9.52,0,0,0-3.5,7.61v18.11Z" transform="translate(-52.99 -14.75)"/><path class="cls-1" d="M425.31,73V68.1h4.13V73Zm0,38.41V79.64h4.13v31.79Z" transform="translate(-52.99 -14.75)"/><path class="cls-1" d="M443.24,103c0,2.33.26,3.78.79,4.37a4.22,4.22,0,0,0,3,.79l1.49-.09a8.38,8.38,0,0,0,.83-.12c.19,0,.54-.12,1-.26v3.6a27.52,27.52,0,0,1-2.72.53,17.19,17.19,0,0,1-2.43.18c-2.23,0-3.81-.63-4.76-1.89s-1.42-3.45-1.42-6.55V83.1h-5.39V79.64h5.39V70.33h4.19v9.31h7.2V83.1h-7.2Z" transform="translate(-52.99 -14.75)"/><path class="cls-1" d="M484.57,101.29a13.7,13.7,0,0,1-5.49,8.24,17.11,17.11,0,0,1-10.21,3q-7.65,0-12.32-4.67t-4.67-12.38q0-7.62,4.67-12.32t12.32-4.7q7.65,0,12.28,4.63c3.08,3.08,4.62,7.2,4.62,12.33v1H456.39a12.61,12.61,0,0,0,.94,5,12.33,12.33,0,0,0,2.66,3.92q3.28,3.15,8.88,3.14a12.53,12.53,0,0,0,7-1.88,10,10,0,0,0,4.06-5.33Zm-28.06-8.35H481a9.19,9.19,0,0,0-.95-4.19,11.39,11.39,0,0,0-2.74-3.42,14,14,0,0,0-17,0A10.87,10.87,0,0,0,456.51,92.94Zm9.34-17.69L471,66.37h5.48l-7.09,8.88Z" transform="translate(-52.99 -14.75)"/><path class="cls-1" d="M68.78,125.1A52.94,52.94,0,0,1,80,126a17.45,17.45,0,0,1,6.66,3.09,16,16,0,0,1,5.13,7.08,34.21,34.21,0,0,1,0,21.27,15.85,15.85,0,0,1-5.25,7.1,16.84,16.84,0,0,1-6.54,3,53.11,53.11,0,0,1-11.22.89H53V125.1Zm-1,3.9H57.33v35.3H68.78a47.62,47.62,0,0,0,8.85-.63A14.47,14.47,0,0,0,83,161.52a12,12,0,0,0,4.59-5.69,25.4,25.4,0,0,0,1.47-9.37,24,24,0,0,0-1.47-9A12.51,12.51,0,0,0,83,131.72a15.47,15.47,0,0,0-5.45-2.08,38.27,38.27,0,0,0-4-.47C71.84,129.05,69.94,129,67.81,129Z" transform="translate(-52.99 -14.75)"/><path class="cls-1" d="M130.33,158.29a13.7,13.7,0,0,1-5.49,8.24,17.11,17.11,0,0,1-10.21,3q-7.65,0-12.32-4.67t-4.67-12.38q0-7.62,4.67-12.32t12.32-4.7q7.65,0,12.27,4.63c3.09,3.08,4.63,7.2,4.63,12.33v1H102.15a12.61,12.61,0,0,0,.94,5,12.33,12.33,0,0,0,2.66,3.92q3.28,3.15,8.88,3.14a12.53,12.53,0,0,0,7-1.88,10,10,0,0,0,4.06-5.33Zm-28.06-8.35h24.52a9.19,9.19,0,0,0-1-4.19,11.39,11.39,0,0,0-2.74-3.42,12.59,12.59,0,0,0-8.47-2.88,12.72,12.72,0,0,0-8.56,2.88A10.9,10.9,0,0,0,102.27,149.94Zm9.34-17.69,5.16-8.88h5.48l-7.09,8.88Z" transform="translate(-52.99 -14.75)"/><path class="cls-1" d="M137,179.8V136.64h4.19v5.57a15.16,15.16,0,0,1,5.45-4.78,14.55,14.55,0,0,1,3.29-1.14,18.43,18.43,0,0,1,3.86-.38q7.59,0,12.23,4.58t4.64,12A16.25,16.25,0,0,1,166,164.59a15.45,15.45,0,0,1-5.36,3.46,18.87,18.87,0,0,1-6.82,1.17,15.64,15.64,0,0,1-7.08-1.51A16.08,16.08,0,0,1,141.2,163V179.8Zm4.19-27.28a12.62,12.62,0,0,0,3.4,9.26,13.83,13.83,0,0,0,18.29,0q3.45-3.43,3.45-9.27a12.63,12.63,0,0,0-3.43-9.23,13.83,13.83,0,0,0-18.31,0,11.38,11.38,0,0,0-2.55,4A14.88,14.88,0,0,0,141.2,152.52Z" transform="translate(-52.99 -14.75)"/><path class="cls-1" d="M208.61,164.42l0,3.6-1.85.44a10.48,10.48,0,0,1-1.64.15,3.81,3.81,0,0,1-3.07-1.12,7.21,7.21,0,0,1-1.2-3.92,16,16,0,0,1-5.86,4.3,20.23,20.23,0,0,1-7.77,1.35c-3.85,0-6.81-.82-8.9-2.48a8.48,8.48,0,0,1-3.14-7.07,8.6,8.6,0,0,1,.82-3.81,8.45,8.45,0,0,1,2.52-3,11.25,11.25,0,0,1,3.59-1.59,71.05,71.05,0,0,1,7.69-1.43l3.28-.41q7.77-.93,7.77-4.51a4.34,4.34,0,0,0-2.26-4,8.63,8.63,0,0,0-2.72-1,18.9,18.9,0,0,0-3.84-.35q-5.43,0-8.29,1.85a6.9,6.9,0,0,0-2.26,2.34,6.26,6.26,0,0,0-.79,3.19h-4.13a10.65,10.65,0,0,1,1-4.82,10.19,10.19,0,0,1,3-3.56q3.75-2.77,10.87-2.78a24.85,24.85,0,0,1,7.35.89,8.9,8.9,0,0,1,4.4,2.95,7.73,7.73,0,0,1,1.38,2.8,20.64,20.64,0,0,1,.43,4.93v14.1a5.85,5.85,0,0,0,.37,2.65,1.54,1.54,0,0,0,1.36.54h.33a3.46,3.46,0,0,0,.55-.06Zm-7.73-13.22a17.19,17.19,0,0,1-3.42,1.15c-1.57.39-4.08.84-7.54,1.37Q183,154.79,181.2,156a4.28,4.28,0,0,0-1.8,3.75,4.77,4.77,0,0,0,2.23,4.1,10.34,10.34,0,0,0,6,1.55,15.58,15.58,0,0,0,9.57-2.74,8.52,8.52,0,0,0,3.68-7.16V151.2Z" transform="translate(-52.99 -14.75)"/><path class="cls-1" d="M218,168.43h-4.19V136.64H218v5.28a11,11,0,0,1,3.93-4.69,9.91,9.91,0,0,1,5.62-1.73,9.53,9.53,0,0,1,1.13,0c.21,0,.52.1.93.19a8.85,8.85,0,0,1,2.13.65v4c-.33-.1-.65-.18-1-.26s-.7-.15-1.16-.22-.81-.11-1-.12H228a9.57,9.57,0,0,0-6.16,2,12.56,12.56,0,0,0-3.86,6.06Z" transform="translate(-52.99 -14.75)"/><path class="cls-1" d="M240.72,160c0,2.33.26,3.78.79,4.37a4.22,4.22,0,0,0,3,.79L246,165a8.38,8.38,0,0,0,.83-.12c.19,0,.54-.12,1-.26v3.6a27.52,27.52,0,0,1-2.72.53,17.19,17.19,0,0,1-2.43.18c-2.23,0-3.81-.63-4.76-1.89s-1.42-3.45-1.42-6.55V140.1h-5.39v-3.46h5.39v-9.31h4.19v9.31h7.2v3.46h-7.2Z" transform="translate(-52.99 -14.75)"/><path class="cls-1" d="M282.05,158.29a13.7,13.7,0,0,1-5.49,8.24,17.11,17.11,0,0,1-10.21,3q-7.65,0-12.32-4.67t-4.67-12.38q0-7.62,4.67-12.32t12.32-4.7q7.65,0,12.27,4.63c3.09,3.08,4.63,7.2,4.63,12.33v1H253.87a12.61,12.61,0,0,0,.94,5,12.33,12.33,0,0,0,2.66,3.92q3.28,3.15,8.88,3.14a12.53,12.53,0,0,0,7-1.88,10,10,0,0,0,4.06-5.33ZM254,149.94h24.52a9.19,9.19,0,0,0-.95-4.19,11.39,11.39,0,0,0-2.74-3.42,12.59,12.59,0,0,0-8.47-2.88,12.72,12.72,0,0,0-8.56,2.88A10.9,10.9,0,0,0,254,149.94Z" transform="translate(-52.99 -14.75)"/><path class="cls-1" d="M288.61,168.43V136.64h4v5.86a15.13,15.13,0,0,1,5.65-4.86,17.07,17.07,0,0,1,7.65-1.67,15.61,15.61,0,0,1,7.47,1.58,9.72,9.72,0,0,1,4.31,4.95,15,15,0,0,1,5.68-4.86A17.06,17.06,0,0,1,331,136q6.27,0,9.25,2.88t3,9v20.57h-4.19V150.56q0-6.09-2-8.45c-1.31-1.58-3.57-2.36-6.8-2.36a13.41,13.41,0,0,0-9,3,9.52,9.52,0,0,0-3.5,7.61v18.11H314V150.56q0-6.09-2-8.45c-1.33-1.58-3.6-2.36-6.83-2.36a13.36,13.36,0,0,0-9,3,9.5,9.5,0,0,0-3.51,7.61v18.11Z" transform="translate(-52.99 -14.75)"/><path class="cls-1" d="M381.31,158.29a13.67,13.67,0,0,1-5.5,8.24,17.08,17.08,0,0,1-10.21,3q-7.64,0-12.32-4.67t-4.67-12.38q0-7.62,4.67-12.32t12.32-4.7q7.65,0,12.28,4.63c3.09,3.08,4.63,7.2,4.63,12.33v1H353.12a12.79,12.79,0,0,0,.94,5,12.36,12.36,0,0,0,2.67,3.92q3.27,3.15,8.87,3.14a12.48,12.48,0,0,0,7-1.88,9.86,9.86,0,0,0,4.06-5.33Zm-28.07-8.35h24.52a9.19,9.19,0,0,0-.95-4.19,11.24,11.24,0,0,0-2.74-3.42,14,14,0,0,0-17,0A10.87,10.87,0,0,0,353.24,149.94Z" transform="translate(-52.99 -14.75)"/><path class="cls-1" d="M387.87,168.43V136.64h4v5.86a15.16,15.16,0,0,1,5.66-4.86,17,17,0,0,1,7.64-1.67q6.27,0,9.26,2.88t3,9v20.57H413.3V150.56c0-4.06-.67-6.88-2-8.45s-3.61-2.36-6.83-2.36a13.39,13.39,0,0,0-9,3,9.52,9.52,0,0,0-3.5,7.61v18.11Z" transform="translate(-52.99 -14.75)"/><path class="cls-1" d="M430.82,160c0,2.33.26,3.78.79,4.37a4.21,4.21,0,0,0,3,.79l1.5-.09a8.38,8.38,0,0,0,.83-.12c.19,0,.54-.12,1-.26v3.6a27.52,27.52,0,0,1-2.72.53,17.19,17.19,0,0,1-2.43.18q-3.35,0-4.76-1.89c-.95-1.26-1.42-3.45-1.42-6.55V140.1h-5.39v-3.46h5.39v-9.31h4.19v9.31H438v3.46h-7.2Z" transform="translate(-52.99 -14.75)"/><path class="cls-1" d="M473.88,164.42l0,3.6-1.85.44a10.48,10.48,0,0,1-1.64.15,3.81,3.81,0,0,1-3.07-1.12,7.21,7.21,0,0,1-1.2-3.92,16,16,0,0,1-5.86,4.3,20.23,20.23,0,0,1-7.77,1.35c-3.84,0-6.81-.82-8.9-2.48a8.48,8.48,0,0,1-3.14-7.07,8.6,8.6,0,0,1,.82-3.81,8.45,8.45,0,0,1,2.52-3,11.25,11.25,0,0,1,3.59-1.59,71.05,71.05,0,0,1,7.69-1.43l3.28-.41q7.77-.93,7.77-4.51a4.34,4.34,0,0,0-2.26-4,8.63,8.63,0,0,0-2.72-1,18.9,18.9,0,0,0-3.84-.35q-5.43,0-8.29,1.85a6.9,6.9,0,0,0-2.26,2.34A6.26,6.26,0,0,0,446,147h-4.13a10.65,10.65,0,0,1,1.05-4.82,10.19,10.19,0,0,1,3-3.56q3.75-2.77,10.87-2.78a24.85,24.85,0,0,1,7.35.89,8.9,8.9,0,0,1,4.4,2.95,7.73,7.73,0,0,1,1.38,2.8,20.53,20.53,0,0,1,.44,4.93v14.1a5.9,5.9,0,0,0,.36,2.65,1.54,1.54,0,0,0,1.36.54h.33a3.46,3.46,0,0,0,.55-.06Zm-7.73-13.22a17,17,0,0,1-3.42,1.15c-1.57.39-4.08.84-7.54,1.37q-6.92,1.07-8.72,2.32a4.28,4.28,0,0,0-1.8,3.75,4.77,4.77,0,0,0,2.23,4.1,10.34,10.34,0,0,0,6,1.55,15.58,15.58,0,0,0,9.57-2.74,8.52,8.52,0,0,0,3.68-7.16V151.2Z" transform="translate(-52.99 -14.75)"/><path class="cls-1" d="M479.24,168.43V125.1h4.13v43.33Z" transform="translate(-52.99 -14.75)"/><path class="cls-1" d="M169.91,182.1v43.33h-4.13v-5.66a15.12,15.12,0,0,1-5.43,4.77,16,16,0,0,1-7.25,1.56q-7.47,0-12.13-4.61t-4.66-12.09q0-7.47,4.66-12.07a16.54,16.54,0,0,1,12.13-4.6,16,16,0,0,1,7.1,1.51,16.46,16.46,0,0,1,5.58,4.73V182.1Zm-4.13,27.3a12.65,12.65,0,0,0-3.44-9.28,13.79,13.79,0,0,0-18.34,0,14.2,14.2,0,0,0,0,18.53,13.9,13.9,0,0,0,18.34,0A12.57,12.57,0,0,0,165.78,209.4Z" transform="translate(-52.99 -14.75)"/><path class="cls-1" d="M208.23,215.29a13.65,13.65,0,0,1-5.49,8.23,17,17,0,0,1-10.21,3q-7.65,0-12.32-4.67t-4.67-12.38q0-7.62,4.67-12.32t12.32-4.7q7.65,0,12.27,4.63c3.09,3.08,4.63,7.2,4.63,12.33v1H180.05a12.61,12.61,0,0,0,.94,5,12.33,12.33,0,0,0,2.66,3.92q3.28,3.13,8.88,3.14a12.53,12.53,0,0,0,7-1.88,9.93,9.93,0,0,0,4-5.33Zm-28.06-8.35h24.52a9.07,9.07,0,0,0-1-4.19,11.2,11.2,0,0,0-2.73-3.42,12.59,12.59,0,0,0-8.47-2.88,12.72,12.72,0,0,0-8.56,2.88A10.9,10.9,0,0,0,180.17,206.94Z" transform="translate(-52.99 -14.75)"/><path class="cls-1" d="M248.22,225.43l-19.4-43.33h4.75L251,221.7l17.39-39.6h4.75l-19.45,43.33Z" transform="translate(-52.99 -14.75)"/><path class="cls-1" d="M274.55,209.52q0-7.62,4.68-12.32t12.32-4.7c5.05,0,9.16,1.57,12.3,4.72s4.72,7.24,4.72,12.3-1.57,9.19-4.72,12.33-7.25,4.72-12.3,4.72-9.18-1.58-12.31-4.73S274.55,214.58,274.55,209.52Zm4.25,0a13,13,0,0,0,3.44,9.45,13.91,13.91,0,0,0,18.52,0q3.48-3.53,3.47-9.45a12.9,12.9,0,0,0-3.44-9.42,12.34,12.34,0,0,0-9.26-3.53,12.5,12.5,0,0,0-9.27,3.52,11.7,11.7,0,0,0-2.58,4.11A15.34,15.34,0,0,0,278.8,209.52Z" transform="translate(-52.99 -14.75)"/><path class="cls-1" d="M314.34,225.43V182.1h4.13v43.33Z" transform="translate(-52.99 -14.75)"/><path class="cls-1" d="M345.07,225.43V182.1h4.33v39.26h27.22v4.07Z" transform="translate(-52.99 -14.75)"/><path class="cls-1" d="M381.69,187V182.1h4.13V187Zm0,38.41V193.64h4.13v31.79Z" transform="translate(-52.99 -14.75)"/><path class="cls-1" d="M393.7,225.43V182.1h4.19V199a15.65,15.65,0,0,1,5.5-4.71,14.74,14.74,0,0,1,3.29-1.15,17.92,17.92,0,0,1,3.8-.38,16.68,16.68,0,0,1,12.19,4.6q4.69,4.6,4.69,12.07a16.19,16.19,0,0,1-4.69,12.07q-4.68,4.64-12.19,4.63a15.8,15.8,0,0,1-7.23-1.54,14.75,14.75,0,0,1-5.36-4.79v5.66Zm4.19-16a12.64,12.64,0,0,0,3.39,9.26,12.24,12.24,0,0,0,9.15,3.46,12.39,12.39,0,0,0,9.15-3.44q3.45-3.45,3.44-9.28a12.7,12.7,0,0,0-3.42-9.27,13.78,13.78,0,0,0-18.32,0A12.76,12.76,0,0,0,397.89,209.4Z" transform="translate(-52.99 -14.75)"/><path class="cls-1" d="M437.11,225.43h-4.19V193.64h4.19v5.28a11,11,0,0,1,3.93-4.69,9.91,9.91,0,0,1,5.62-1.73,9.53,9.53,0,0,1,1.13,0c.21,0,.51.1.92.19a8.79,8.79,0,0,1,2.14.65v4c-.33-.1-.65-.18-1-.26s-.7-.15-1.16-.22-.81-.11-1-.12h-.56a9.57,9.57,0,0,0-6.16,2,12.56,12.56,0,0,0-3.86,6.06Z" transform="translate(-52.99 -14.75)"/><path class="cls-1" d="M484.57,215.29a13.65,13.65,0,0,1-5.49,8.23,17,17,0,0,1-10.21,3q-7.65,0-12.32-4.67t-4.67-12.38q0-7.62,4.67-12.32t12.32-4.7q7.65,0,12.28,4.63c3.08,3.08,4.62,7.2,4.62,12.33v1H456.39a12.61,12.61,0,0,0,.94,5,12.33,12.33,0,0,0,2.66,3.92q3.28,3.13,8.88,3.14a12.53,12.53,0,0,0,7-1.88,10,10,0,0,0,4.06-5.33Zm-28.06-8.35H481a9.19,9.19,0,0,0-.95-4.19,11.39,11.39,0,0,0-2.74-3.42,14,14,0,0,0-17,0A10.87,10.87,0,0,0,456.51,206.94Z" transform="translate(-52.99 -14.75)"/><path class="cls-1" d="M281.79,239.1v43.33h-4.13v-5.66a15.14,15.14,0,0,1-5.44,4.77A16,16,0,0,1,265,283.1a16.52,16.52,0,0,1-12.13-4.61q-4.65-4.62-4.65-12.09t4.65-12.07a16.56,16.56,0,0,1,12.13-4.6,16,16,0,0,1,7.11,1.51,16.46,16.46,0,0,1,5.58,4.73V239.1Zm-4.13,27.3a12.65,12.65,0,0,0-3.44-9.28,13.79,13.79,0,0,0-18.34,0,14.17,14.17,0,0,0,0,18.53,12.31,12.31,0,0,0,9.15,3.47,11.85,11.85,0,0,0,12.63-12.72Z" transform="translate(-52.99 -14.75)"/><path class="cls-1" d="M318.91,250.64v31.79h-4v-5.89a15.4,15.4,0,0,1-5.67,4.86,16.73,16.73,0,0,1-7.66,1.7q-6.21,0-9.21-2.9t-3-9V250.64h4.13v17.87q0,6.08,2,8.44c1.33,1.58,3.6,2.37,6.83,2.37a13.37,13.37,0,0,0,9-3,9.52,9.52,0,0,0,3.51-7.6V250.64Z" transform="translate(-52.99 -14.75)"/><path class="cls-1" d="M345.09,282.43V239.1h5.51L380.92,278V239.1h4.19v43.33h-5.77l-30.06-38.88v38.88Z" transform="translate(-52.99 -14.75)"/><path class="cls-1" d="M391.41,266.52q0-7.62,4.67-12.32t12.32-4.7q7.59,0,12.31,4.72t4.71,12.3q0,7.62-4.71,12.33t-12.31,4.72c-5.07,0-9.18-1.58-12.3-4.73S391.41,271.58,391.41,266.52Zm4.25,0A13,13,0,0,0,399.1,276a13.91,13.91,0,0,0,18.52,0,14.61,14.61,0,0,0,0-18.87,12.34,12.34,0,0,0-9.26-3.53,12.52,12.52,0,0,0-9.28,3.52,11.67,11.67,0,0,0-2.57,4.11A15.11,15.11,0,0,0,395.66,266.52Z" transform="translate(-52.99 -14.75)"/><path class="cls-1" d="M435.21,282.43H431V250.64h4.19v5.28a11,11,0,0,1,3.92-4.69,9.94,9.94,0,0,1,5.63-1.73,9.64,9.64,0,0,1,1.13,0c.2,0,.51.1.92.19a8.92,8.92,0,0,1,2.14.65v4c-.33-.1-.66-.18-1-.26s-.7-.15-1.15-.22-.81-.11-1-.12h-.56a9.6,9.6,0,0,0-6.17,2,12.55,12.55,0,0,0-3.85,6.06Z" transform="translate(-52.99 -14.75)"/><path class="cls-1" d="M483.58,239.1v43.33h-4.13v-5.66a15.23,15.23,0,0,1-5.44,4.77,16,16,0,0,1-7.25,1.56,16.52,16.52,0,0,1-12.13-4.61A16.3,16.3,0,0,1,450,266.4q0-7.47,4.66-12.07a16.56,16.56,0,0,1,12.13-4.6,15.92,15.92,0,0,1,7.1,1.51,16.4,16.4,0,0,1,5.59,4.73V239.1Zm-4.13,27.3a12.61,12.61,0,0,0-3.45-9.28,13.79,13.79,0,0,0-18.34,0,14.2,14.2,0,0,0,0,18.53,13.9,13.9,0,0,0,18.34,0A12.54,12.54,0,0,0,479.45,266.4Z" transform="translate(-52.99 -14.75)"/><path class="cls-2" d="M521.46,72.66a3.79,3.79,0,0,1,3.24-1.2L750.15,111a3.71,3.71,0,0,1,2.61,2.24L836.88,365a5.4,5.4,0,0,1-.29,3.67L831.75,378a1.15,1.15,0,0,1-2.11.16L678.51,170.4a10.78,10.78,0,0,0-2.93-2.58L517.22,81a1.61,1.61,0,0,1-.49-2.51Z" transform="translate(-52.99 -14.75)"/><path class="cls-3" d="M540.92,306.93a2.55,2.55,0,0,1-3.75,2.51L521.09,303a8.52,8.52,0,0,1-4.59-5.38s-23.36-103.17,22.41-179.08,106-84.28,106-84.28a16.67,16.67,0,0,1,7.63,1l10.53,4.61c2,.88,2.18,2.62.37,3.86,0,0-41,28.09-78.75,98.76C541.7,222.93,540.92,306.93,540.92,306.93Z" transform="translate(-52.99 -14.75)"/><path class="cls-4" d="M533.12,170c-.5-.23-.46-.42.09-.42h94a1.05,1.05,0,0,1,1,1l3.28,96.79c0,.55-.19.61-.46.14l-31.94-55.76a2.64,2.64,0,0,0-1.47-1.09l-12.56-2.9a2.09,2.09,0,0,1-1.34-1.16l-6-15.43a2.78,2.78,0,0,0-1.27-1.35Z" transform="translate(-52.99 -14.75)"/><path class="cls-5" d="M647.72,83.56S667.13,54.77,672.05,49,721-8.67,770.49,27.39c49.85,37.54,15.85,93.09,10.71,99.06s-30.78,36.88-30.78,36.88,20.15-28.07,27.9-39S796,71.78,765.76,43.88c-29-26.77-72.22-11.43-90.25,6.2C664.17,62,647.72,83.56,647.72,83.56Z" transform="translate(-52.99 -14.75)"/></svg>