<?xml version="1.0" standalone="no"?>
<!DOCTYPE svg PUBLIC "-//W3C//DTD SVG 20010904//EN"
 "http://www.w3.org/TR/2001/REC-SVG-20010904/DTD/svg10.dtd">
<svg version="1.0" xmlns="http://www.w3.org/2000/svg"
 width="700.000000pt" height="700.000000pt" viewBox="0 0 700.000000 700.000000"
 preserveAspectRatio="xMidYMid meet">
<metadata>
Created by potrace 1.14, written by Peter Selinger 2001-2017
</metadata>
<g transform="translate(0.000000,700.000000) scale(0.100000,-0.100000)"
fill="#000000" stroke="none">
<path d="M1030 4329 c-224 -10 -416 -41 -620 -101 -124 -35 -282 -96 -292
-112 -8 -12 -11 -276 -3 -276 2 0 44 18 94 39 295 130 538 180 921 188 370 8
641 -25 1060 -128 355 -87 689 -206 1260 -449 361 -153 783 -266 1180 -315
173 -22 591 -30 765 -16 272 22 527 65 725 122 125 36 417 177 625 302 l140
84 3 78 c2 60 0 76 -10 72 -500 -215 -904 -330 -1343 -382 -187 -23 -521 -30
-700 -16 -469 37 -955 162 -1378 353 -62 28 -193 83 -292 123 -807 324 -1489
463 -2135 434z"/>
<path d="M6767 3388 c-64 -40 -175 -112 -245 -159 -510 -345 -1065 -555 -1687
-640 -242 -33 -687 -37 -1020 -9 -484 41 -1079 38 -1465 -6 -1085 -124 -1850
-564 -2191 -1258 l-49 -99 0 -194 c0 -127 3 -192 10 -188 6 3 10 15 10 25 0
39 72 238 130 358 152 317 368 558 685 765 625 408 1612 569 2830 461 251 -22
621 -29 819 -15 804 57 1534 330 2194 819 l102 76 0 68 c0 37 -1 68 -3 68 -1
0 -55 -33 -120 -72z"/>
</g>
</svg>
