<svg id="Calque_1" data-name="Calque 1" xmlns="http://www.w3.org/2000/svg" xmlns:xlink="http://www.w3.org/1999/xlink" viewBox="0 0 1052.65 974.6"><defs><style>.cls-1{fill:none;}.cls-2,.cls-6,.cls-7,.cls-8{fill:#fff;}.cls-3{clip-path:url(#clip-path);}.cls-4{isolation:isolate;}.cls-5{clip-path:url(#clip-path-2);}.cls-6{stroke:#474747;}.cls-6,.cls-7,.cls-8{stroke-miterlimit:10;stroke-width:1.76px;}.cls-7{stroke:#fff;}.cls-8{stroke:#585858;}</style><clipPath id="clip-path" transform="translate(6.87 -8.6)"><path class="cls-1" d="M959,980.7H41.3a25.07,25.07,0,0,1-25-25V36.1a25.07,25.07,0,0,1,25-25H959a25.07,25.07,0,0,1,25,25V955.7A25,25,0,0,1,959,980.7Z"/></clipPath><clipPath id="clip-path-2" transform="translate(6.87 -8.6)"><rect class="cls-1" x="-41.4" y="353.8" width="1086.2" height="557.1"/></clipPath></defs><path d="M41.3,982A26.31,26.31,0,0,1,15,955.8V36.1A26.25,26.25,0,0,1,41.3,9.9H959a26.23,26.23,0,0,1,26.2,26.2V955.7A26.23,26.23,0,0,1,959,981.9H41.3Z" transform="translate(6.87 -8.6)"/><path class="cls-2" d="M959,11.1a25.07,25.07,0,0,1,25,25V955.7a25.07,25.07,0,0,1-25,25H41.3a25.07,25.07,0,0,1-25-25V36.1a25.07,25.07,0,0,1,25-25H959m0-2.5H41.3A27.55,27.55,0,0,0,13.8,36.1V955.7a27.48,27.48,0,0,0,27.5,27.5H959a27.48,27.48,0,0,0,27.5-27.5V36.1A27.55,27.55,0,0,0,959,8.6Z" transform="translate(6.87 -8.6)"/><path class="cls-2" d="M100,806.6c4.3-4.4,11.4-6.3,21.7-6.3h17.8V810H120.7c-10,0-14.5,4-14.6,13.5h33.4v9.6H106v22.8H94.4V830.4c0-11.2.6-18.7,5.6-23.8" transform="translate(6.87 -8.6)"/><path class="cls-2" d="M143.8,835.5c0-13.3,7-20.4,20.5-20.4H180v8.5H165.8c-6.9,0-9.8,1.2-10.1,7.7H180v8.5H155.7c.2,6.7,3,7.6,10,7.6H180v8.5H164.3c-13.5-.1-20.5-7-20.5-20.4m34.1-36.1-13.2,10.8h-5.4l7.5-10.8Z" transform="translate(6.87 -8.6)"/><path class="cls-2" d="M204,855.8c-12.7,0-19.9-7.9-19.9-20.9a21.34,21.34,0,0,1,4.4-13.6c3.9-4.9,8.8-6.3,16.2-6.3h9.2V800.2h10.8v55.6Zm9.9-32h-6.5c-8.4,0-12,3-12,11.8,0,8.5,3.2,11.4,11.1,11.4h7.4Z" transform="translate(6.87 -8.6)"/><path class="cls-2" d="M231.7,835.5c0-13.3,7-20.4,20.5-20.4H268v8.5H253.8c-6.9,0-9.8,1.2-10.1,7.7H268v8.5H243.7c.2,6.7,3,7.6,10,7.6H268v8.5H252.3c-13.6-.1-20.6-7-20.6-20.4m34.1-36.1-13.2,10.8h-5.4l7.5-10.8Z" transform="translate(6.87 -8.6)"/><path class="cls-2" d="M293,815c8.5,0,11.5,2.7,11.5,10.3v6.8H294.2v-5.3c0-3.6-1.2-4-4.7-4h-3.8v33H274.9V815Z" transform="translate(6.87 -8.6)"/><path class="cls-2" d="M334.1,815c11.1,0,16.8,5.2,16.8,15.3v25.5H322c-8.1,0-12.6-4.3-12.6-11.8,0-9.4,4.9-13,16.3-13h14.2v-1c0-5.2-2.9-6.6-9.7-6.6h-18V815Zm5.8,32.6v-8.4H327.2c-4.6,0-6.7.9-6.7,4.6,0,3.4,1.9,3.9,5.9,3.9h13.5Z" transform="translate(6.87 -8.6)"/><path class="cls-2" d="M363.9,815V800.2h10.8V815h11.4v8.1H374.7v16.5c0,5.6,1.5,8,7,8h4.4v8.1h-9.8c-7.8,0-12.3-4.4-12.3-12.8V823h-7.6v-8Z" transform="translate(6.87 -8.6)"/><path class="cls-2" d="M392.4,800.2h11.3v10.1H392.4Zm0,14.8h11.3v40.8H392.4Z" transform="translate(6.87 -8.6)"/><path class="cls-2" d="M432,856.5c-13.3,0-21.7-8.4-21.7-21s8.4-21.1,21.7-21.1,21.6,8.4,21.6,21.1-8.2,21-21.6,21m-.1-8.7c6.3,0,10.4-4.4,10.4-12.3s-4-12.3-10.4-12.3-10.3,4.4-10.3,12.3,4,12.3,10.3,12.3" transform="translate(6.87 -8.6)"/><path class="cls-2" d="M480.4,815c12.1,0,17,4.1,17,14.9v25.9H486.6V831.3c0-5.7-1-7.3-7.1-7.3h-8.7v31.8H460V815Z" transform="translate(6.87 -8.6)"/><path class="cls-2" d="M542.9,806.6c4.3-4.4,11.4-6.3,21.7-6.3h17.8V810H563.6c-10,0-14.5,4-14.6,13.5h33.4v9.6H549v22.8H537.3V830.4c-.1-11.2.6-18.7,5.6-23.8" transform="translate(6.87 -8.6)"/><path class="cls-2" d="M607.1,815c8.5,0,11.5,2.7,11.5,10.3v6.8H608.3v-5.3c0-3.6-1.2-4-4.7-4h-3.8v33H589V815Z" transform="translate(6.87 -8.6)"/><path class="cls-2" d="M648.3,815c11.1,0,16.8,5.2,16.8,15.3v25.5H636.2c-8.1,0-12.6-4.3-12.6-11.8,0-9.4,4.9-13,16.3-13H654v-1c0-5.2-2.9-6.6-9.8-6.6h-18V815Zm5.7,32.6v-8.4H641.3c-4.6,0-6.7.9-6.7,4.6,0,3.4,1.9,3.9,5.9,3.9H654Z" transform="translate(6.87 -8.6)"/><path class="cls-2" d="M694.8,815c12.1,0,17,4.1,17,14.9v25.9H701V831.3c0-5.7-1-7.3-7.1-7.3h-8.7v31.8H674.4V815Z" transform="translate(6.87 -8.6)"/><path class="cls-2" d="M754.7,847.1v8.7H740c-6.7,0-11.5-1.2-15.3-4.9a21.44,21.44,0,0,1-6-15.3c0-6.4,2.3-12.1,6-15.7s8.6-4.9,15.3-4.9h14.6v8.8H743.1c-9.2,0-13.3,2.3-13.3,11.8,0,4.9,1.5,8.1,4.8,10.1,2.2,1.3,4.9,1.3,8.5,1.3h11.6ZM738,868c2.1,0,3-.8,3-2.5s-1.3-2.2-4.3-2.2a13.43,13.43,0,0,0-1.9.1v-8H739V859h.5c5.4,0,8.4,2.3,8.4,6.6,0,4.5-3.2,7.2-9.1,7.2a41.27,41.27,0,0,1-10.5-1.6v-4.7A45.93,45.93,0,0,0,738,868" transform="translate(6.87 -8.6)"/><path class="cls-2" d="M784.7,815c11.2,0,16.8,5.2,16.8,15.3v25.5H772.6c-8.1,0-12.6-4.3-12.6-11.8,0-9.4,4.9-13,16.3-13h14.2v-1c0-5.2-2.9-6.6-9.8-6.6h-18V815Zm5.7,32.6v-8.4H777.7c-4.6,0-6.7.9-6.7,4.6,0,3.4,1.9,3.9,5.9,3.9h13.5Z" transform="translate(6.87 -8.6)"/><path class="cls-2" d="M810.9,800.2h11.3v10.1H810.9Zm0,14.8h11.3v40.8H810.9Z" transform="translate(6.87 -8.6)"/><path class="cls-2" d="M853.6,847.3c3.9,0,5.8-1.1,5.8-4s-1.9-4-5.8-4h-9.3c-9.9,0-14.1-2-14.1-11.5,0-8.7,4.6-12.8,14.4-12.8h23.1v8.5h-19c-4.9,0-7.4.3-7.4,3.7,0,2.6,1.6,3.6,5.1,3.6h9.8c9,0,13.7,4.3,13.7,12.1s-4.7,12.8-11.1,12.8H831v-8.5h22.6Z" transform="translate(6.87 -8.6)"/><path class="cls-2" d="M875.2,835.5c0-13.3,7-20.4,20.5-20.4h15.7v8.5H897.2c-6.9,0-9.8,1.2-10.1,7.7h24.3v8.5H887.1c.2,6.7,3,7.6,10,7.6h14.3v8.5H895.7c-13.6-.1-20.5-7-20.5-20.4" transform="translate(6.87 -8.6)"/><path class="cls-2" d="M311.1,948.7c-12.7,0-19.9-7.9-19.9-20.9a21.34,21.34,0,0,1,4.4-13.6c3.9-4.9,8.8-6.3,16.2-6.3H321V893.1h10.8v55.6Zm9.9-32h-6.5c-8.4,0-12,3-12,11.8,0,8.5,3.2,11.4,11.1,11.4H321Z" transform="translate(6.87 -8.6)"/><path class="cls-2" d="M338.8,928.3c0-13.3,7-20.4,20.5-20.4H375v8.5H360.8c-6.9,0-9.8,1.2-10.1,7.7H375v8.5H350.7c.2,6.7,3,7.6,10,7.6H375v8.5H359.3c-13.6,0-20.5-7-20.5-20.4" transform="translate(6.87 -8.6)"/><polygon class="cls-2" points="411.57 884.5 424.87 884.5 441.57 925.9 458.67 884.5 471.07 884.5 447.87 940.1 435.77 940.1 411.57 884.5"/><path class="cls-2" d="M481.5,949.4c-13.3,0-21.7-8.4-21.7-21s8.4-21.1,21.7-21.1,21.6,8.4,21.6,21.1-8.3,21-21.6,21m-.1-8.8c6.3,0,10.4-4.4,10.4-12.3S487.9,916,481.4,916c-6.3,0-10.3,4.4-10.3,12.3s3.9,12.3,10.3,12.3" transform="translate(6.87 -8.6)"/><rect class="cls-2" x="516.37" y="884.5" width="11.2" height="55.6"/><path class="cls-2" d="M564.7,942.9c-4.3-4.5-5-9.4-5-16.7V893.1h11.7v32.7c0,4.6.1,7.9,1.9,10.1,2.5,2.9,5.8,3.6,10.8,3.6h13.8v9.2H583c-8,0-13.4-.5-18.3-5.8" transform="translate(6.87 -8.6)"/><path class="cls-2" d="M602.9,893.1h11.3v10.1H602.9Zm0,14.8h11.3v40.8H602.9Z" transform="translate(6.87 -8.6)"/><path class="cls-2" d="M634.3,907.9h9.3c7.4,0,12.3,1.4,16.2,6.3a21.34,21.34,0,0,1,4.4,13.6c0,13-7.3,20.9-19.9,20.9H623.6V893.1h10.8v14.8Zm0,8.8v23.2h7.4c8,0,11.1-2.9,11.1-11.4,0-8.8-3.6-11.8-12-11.8Z" transform="translate(6.87 -8.6)"/><path class="cls-2" d="M688.9,907.9c8.5,0,11.5,2.7,11.5,10.3V925H690.1v-5.3c0-3.6-1.2-4-4.7-4h-3.8v33H670.8V907.9Z" transform="translate(6.87 -8.6)"/><path class="cls-2" d="M704.8,928.3c0-13.3,7-20.4,20.5-20.4H741v8.5H726.8c-6.9,0-9.8,1.2-10.1,7.7H741v8.5H716.7c.2,6.7,3,7.6,10,7.6H741v8.5H725.3c-13.5,0-20.5-7-20.5-20.4" transform="translate(6.87 -8.6)"/><g class="cls-3"><g class="cls-4"><g class="cls-5"><path class="cls-6" d="M1037.4,466.4a8.57,8.57,0,0,1-.7,12c-5.6,5-11.3,10.1-15.8,14.4-66.5,58.9-134.9,100-205.7,125.7s-143.7,36.3-218.9,34.4c-13.5-.4-27-1.1-40.6-2.2-32.1-3-62.2-4.8-90.6-5.6-136.3-3.4-232,18.5-298.9,52C99.1,730.9,60.7,775.9,38.2,820a279.37,279.37,0,0,0-26.6,83.5,8.63,8.63,0,0,1-8.7,7.3c-5.4-.7-8.5-4.8-7.8-9.4,6.2-39.5,21.6-89.3,58.5-135.7S148.7,677,239,651.9c60.2-16.7,134.7-25.8,226.9-23.5,28.8.7,59.3,2.6,91.7,5.6q19.95,1.65,39.6,2.1c73.4,1.9,144.1-8.4,212.7-33.4,56.3-20.5,111.1-51,164.8-93,14.2-8.4,28.3-17.4,42.5-27.1,1.7-1.1,4.1-2.7,6.9-4.7s6-4.3,9.2-6.7a11.88,11.88,0,0,0,4.1-4.8" transform="translate(6.87 -8.6)"/></g><g class="cls-5"><path class="cls-7" d="M1026.7,448.6a12,12,0,0,1,9.6,5.1,12.88,12.88,0,0,1,1.1,12.7,13.15,13.15,0,0,1-4.1,5c-3.2,2.4-6.5,4.7-9.2,6.7s-5.2,3.7-6.9,4.8c-14.2,9.7-28.3,18.7-42.5,27.1-46.8,27.7-93.4,48.4-140.1,62.8a568.23,568.23,0,0,1-182.4,25c-43.2-1.1-86.4-6.9-129.8-16.8C437,558.1,364,547.6,301.6,546.1c-72.8-1.8-131.2,8.4-177.6,25.3s-80.8,40.2-106.1,65a12.58,12.58,0,0,1-9.3,3.7,12,12,0,0,1-8.4-3.7,12.74,12.74,0,0,1,.4-17.9c27.9-27.4,65.7-52.9,115.4-71s111.3-28.7,186.8-26.8c64.6,1.6,139.3,12.4,225.7,35.5,41.9,9.6,83.5,15.2,124.9,16.2a540.56,540.56,0,0,0,174.4-23.9,590,590,0,0,0,56.3-20.6c39.6-16.8,79.4-38.6,119.5-66,1.4-1,3.7-2.5,6.4-4.4s5.8-4.1,8.8-6.4a12.38,12.38,0,0,1,7.9-2.5" transform="translate(6.87 -8.6)"/></g><g class="cls-5"><path class="cls-8" d="M184.3,382.1c85.8,2.2,191.8,26.4,321.4,85.7,68.5,28.3,138,44.5,209.7,46.3,95.8,2.4,196.2-20.7,304.7-76.2a17.07,17.07,0,0,1,23.1,7.5A17.8,17.8,0,0,1,1038,467c1.4-4.6,1.1-9.5-1.5-13.3a12.24,12.24,0,0,0-9.6-5.1,12.38,12.38,0,0,0-7.9,2.5c-3,2.3-6.1,4.5-8.8,6.4s-5,3.4-6.2,4.3c-40.3,27.5-80.1,49.4-119.7,66.2-58.4,15.7-115.1,22.4-170.6,20.9-76.6-1.9-150.4-19.3-222.4-49.1-126.9-58-228.4-80.9-308.5-82.9-70.3-1.8-123.9,12.3-164.1,32.7a16.55,16.55,0,0,1-8.3,1.9,17,17,0,0,1-14.7-9.4,17.79,17.79,0,0,1,8.1-23.4c45.6-23.4,105.3-38.5,180.5-36.6" transform="translate(6.87 -8.6)"/></g></g></g><path class="cls-1" d="M313.9,91.1a76.33,76.33,0,0,0-13.5-1.4c-11.5-.2-23-.1-34.5-.1-.5,0-1,.1-1.6.1v96.7h2c11.1,0,22.3.1,33.4,0a71.31,71.31,0,0,0,10.3-.7c13.2-1.6,20.5-8,24-20.7,2.1-7.4,2.6-15,2.8-22.7.2-10.6-.2-21.2-2.9-31.6C331.2,100.1,324.7,93.3,313.9,91.1Z" transform="translate(6.87 -8.6)"/><path class="cls-1" d="M865.2,89.3a74.8,74.8,0,0,0-25.8-1.6A47,47,0,0,0,829,89.9c-5.9,2-9.5,6.2-10.3,12.4a31.52,31.52,0,0,0,.1,9.2c.9,6.5,4.9,10.5,11.2,12a31.29,31.29,0,0,0,7.5.7h50.6c-.6-4.5-1-8.8-1.8-13C883.8,99.6,876.9,92.2,865.2,89.3Z" transform="translate(6.87 -8.6)"/><path class="cls-2" d="M159.3,186.4a82.51,82.51,0,0,1-12.2-1c-11.3-1.9-18.8-8.3-22-19.5a79,79,0,0,1-2.8-19.9c-.3-11.1.2-22.2,3.3-33,1.7-6.1,4.4-11.7,9.2-16.1,6.3-5.7,13.9-7.6,22.1-7.7,17-.1,34-.1,51.1-.1h2V63.8c-.6,0-1-.1-1.5-.1H158.1a98,98,0,0,0-25.8,3.1C116,71.1,103.7,80.3,96.4,95.7c-4.7,9.9-6.8,20.4-7.7,31.3-.2,2.8-.5,5.6-.7,8.4v10c.1,1,.3,2,.3,3a89.27,89.27,0,0,0,4.2,23.5c6.4,19.2,19.2,32,38.6,37.7,8.1,2.4,16.5,2.6,25,2.6H210V186.3h-2.1C191.7,186.4,175.5,186.5,159.3,186.4Z" transform="translate(6.87 -8.6)"/><path class="cls-2" d="M918.3,100.7c-3.9-11-10.3-20.2-20.1-26.8-9.5-6.4-20.2-9.4-31.4-10.9a136.6,136.6,0,0,0-33.2-.3c-9.1.9-18,2.8-26.4,6.8-10.2,4.9-17.9,12.2-21.6,23.2a53.85,53.85,0,0,0-1.8,24.9c2,13.5,9.2,22.9,22.1,27.7,8.6,3.2,17.5,4.3,26.6,4.3,17.6.1,35.3,0,52.9,0h2.4c-.4,3.3-.7,6.4-1.3,9.5-2.5,13.2-9.9,22-23,25.6a69.62,69.62,0,0,1-18.8,2.2H791.4v25.5h1.1c18.7,0,37.5.1,56.2-.1a115.76,115.76,0,0,0,29.8-4.1c21.1-5.9,35-19,41.1-40.1,2.9-10,3.9-20.3,4-30.7C923.7,124.9,922.6,112.6,918.3,100.7Zm-32.6,23.6c-16.1,0-32.2.1-48.3,0a37.39,37.39,0,0,1-7.5-.7c-6.4-1.5-10.3-5.5-11.2-12a40.44,40.44,0,0,1-.1-9.2c.8-6.2,4.4-10.4,10.3-12.4a45.86,45.86,0,0,1,10.4-2.2,79.88,79.88,0,0,1,25.8,1.6c11.7,2.8,18.6,10.3,21,22,.9,4.2,1.2,8.5,1.8,13A20.34,20.34,0,0,0,885.7,124.3Z" transform="translate(6.87 -8.6)"/><path class="cls-2" d="M364.7,100.1c-5.8-14.8-15.9-25.3-30.8-31-10.9-4.1-22.2-5.3-33.7-5.3h-67V212.4h2.2c21,0,42,.1,62.9,0,6.3,0,12.5-.3,18.8-.7a55.05,55.05,0,0,0,33.1-13.9c10.7-9.4,16.3-21.5,19-35.1a125,125,0,0,0,1.7-32.3C370.2,120,368.5,109.8,364.7,100.1Zm-27.8,42.2a96.63,96.63,0,0,1-2.8,22.7c-3.5,12.8-10.8,19.1-24,20.7-3.4.4-6.9.6-10.3.7-11.1.1-22.3,0-33.4,0h-2V89.7c.6,0,1.1-.1,1.6-.1,11.5,0,23-.1,34.5.1A76.33,76.33,0,0,1,314,91.1c10.8,2.2,17.3,9,20.1,19.6C336.7,121.1,337.2,131.7,336.9,142.3Z" transform="translate(6.87 -8.6)"/><path class="cls-2" d="M752.7,128.2c-7.3-3.3-15.1-4.1-23.1-4.1h-52V89h90.3V63.7H644.6v85.7h71.1a55.79,55.79,0,0,1,9.1.7c6.2,1,11.1,3.8,13.1,10.2a26.12,26.12,0,0,1,.8,12.1c-1.1,7.7-4.6,11.6-12.2,13.2a50,50,0,0,1-10.3,1c-23.2.1-46.3,0-69.5,0h-2.1V212c.5,0,.7.1,1,.1q40.5,0,81.1-.1a68.55,68.55,0,0,0,21.5-3.4c11.7-3.9,20.5-11,24.7-22.9a55.66,55.66,0,0,0,1.8-28.9C772.4,143.7,765.3,133.8,752.7,128.2Z" transform="translate(6.87 -8.6)"/><path class="cls-2" d="M499,63.7a3,3,0,0,0-3.3,2.1q-21.9,53.1-43.9,106.3c-.3.6-.5,1.2-1,2.2-.4-1.1-.7-1.8-1-2.5q-21.45-53.25-43-106.5a2.19,2.19,0,0,0-2.4-1.6c-5.6.1-11.3,0-16.9,0H370.7c.3.7.4,1.1.6,1.5q31.8,72.9,63.5,145.7a1.93,1.93,0,0,0,2.1,1.4c9.7-.1,19.3-.1,29,0a2.34,2.34,0,0,0,2.6-1.8Q498.65,138,529,65.6c.2-.6.4-1.2.7-2h-2C518.2,63.7,508.6,63.8,499,63.7Z" transform="translate(6.87 -8.6)"/><path class="cls-2" d="M600.6,187.6c-5.6,0-11.2-.1-16.6-1.6-9.3-2.6-15.8-8.1-17.3-18.1a69.51,69.51,0,0,1-.8-11.2c-.1-30.2-.1-60.5-.1-90.7V63.8H534.5v1.7c0,29.4-.1,58.7.1,88.1a102.58,102.58,0,0,0,1.7,20c3.7,18.4,14.9,30.6,32.9,36,8.1,2.4,16.6,2.6,25,2.6,13.6.1,27.1,0,40.7,0h1.6V187.5h-2.2C623,187.7,611.8,187.7,600.6,187.6Z" transform="translate(6.87 -8.6)"/></svg>